<svg id="Layer_1" data-name="Layer 1" xmlns="http://www.w3.org/2000/svg" viewBox="0 0 470 155"><defs><style>.cls-1{fill:#03477d;}.cls-2{fill:#eb6d64;}</style></defs><title>tr_logo_text</title><rect class="cls-1" x="63.56" y="15.67" width="29.57" height="29.57" transform="translate(155.28 -3.4) rotate(135)"/><rect class="cls-1" x="87.08" y="39.19" width="29.57" height="29.57" transform="translate(212.07 20.12) rotate(135)"/><rect class="cls-1" x="110.61" y="62.71" width="29.57" height="29.57" transform="translate(268.86 43.63) rotate(135)"/><rect class="cls-2" x="40.04" y="39.19" width="29.57" height="29.57" transform="translate(131.76 53.38) rotate(135)"/><rect class="cls-1" x="87.08" y="86.23" width="29.57" height="29.57" transform="translate(245.33 100.42) rotate(135)"/><rect class="cls-2" x="16.52" y="62.72" width="29.57" height="29.57" transform="translate(108.24 110.17) rotate(135)"/><rect class="cls-2" x="40.04" y="86.24" width="29.57" height="29.57" transform="translate(165.03 133.69) rotate(135)"/><rect class="cls-1" x="63.56" y="109.76" width="29.57" height="29.57" transform="translate(221.81 157.21) rotate(135)"/><path class="cls-1" d="M200.37,55.35H183.72l2-9.81h45.33l-2,9.81H212.48L204,97.56H192Z"/><path class="cls-1" d="M259.46,80.69H228.85q.59,8.18,10.33,8.17a17.78,17.78,0,0,0,5.83-1,15,15,0,0,0,4.87-2.75l4.83,7.65a22.93,22.93,0,0,1-7.65,4A30.21,30.21,0,0,1,238,98.15,25.07,25.07,0,0,1,227.18,96,16.18,16.18,0,0,1,220,89.68a17.76,17.76,0,0,1-2.49-9.44,23.8,23.8,0,0,1,3-11.92A21.66,21.66,0,0,1,228.92,60a24.51,24.51,0,0,1,12.19-3,22.08,22.08,0,0,1,10.07,2.16,15.59,15.59,0,0,1,6.61,6.17,18.07,18.07,0,0,1,2.34,9.28A31,31,0,0,1,259.46,80.69ZM233.68,67.87a11.74,11.74,0,0,0-4,6.06h19.84a7.77,7.77,0,0,0-2.42-6.06,9.31,9.31,0,0,0-6.5-2.19A10.92,10.92,0,0,0,233.68,67.87Z"/><path class="cls-1" d="M289.82,83.7a8.31,8.31,0,0,1-2.57-6.21,9.73,9.73,0,0,1,10-10,8.68,8.68,0,0,1,6.21,2.45A8.18,8.18,0,0,1,306,76.08a10.07,10.07,0,0,1-1.34,5.2,9.67,9.67,0,0,1-3.6,3.61,9.83,9.83,0,0,1-4.94,1.3A8.67,8.67,0,0,1,289.82,83.7Z"/><path class="cls-1" d="M359.28,74.15a21.06,21.06,0,0,1-10.92,7.36l9.06,16H344.71L336.54,83H326.28l-2.89,14.57H311.27l10.41-52h21.18q9.66,0,15,4.23t5.35,11.89A20.13,20.13,0,0,1,359.28,74.15Zm-11.56-3.49c2.21-1.84,3.31-4.46,3.31-7.88a6.45,6.45,0,0,0-2.53-5.57q-2.52-1.86-7.2-1.86h-9.52l-3.64,18.06H338.4Q344.42,73.41,347.72,70.66Z"/><path class="cls-1" d="M413.68,57.58l-7.95,40h-11l.74-3.94A18.65,18.65,0,0,1,374.59,96a16.08,16.08,0,0,1-6.28-6.21A18.75,18.75,0,0,1,366,80.24a24.28,24.28,0,0,1,2.93-11.92,21.77,21.77,0,0,1,8-8.33A21.46,21.46,0,0,1,388,57q9.21,0,13,6l1-5.42ZM392.87,86.89A11.29,11.29,0,0,0,397,82.25a15.1,15.1,0,0,0,1.49-6.84A8.65,8.65,0,0,0,396.1,69a9.15,9.15,0,0,0-6.72-2.38,11.1,11.1,0,0,0-10.26,6.32,15.09,15.09,0,0,0-1.49,6.83,8.67,8.67,0,0,0,2.42,6.47,9.2,9.2,0,0,0,6.73,2.38A11.22,11.22,0,0,0,392.87,86.89Z"/><path class="cls-1" d="M455.67,60.51q3.93,3.54,3.94,10.07a22.9,22.9,0,0,1-.52,4.83l-4.46,22.15H443l4.31-21.4a12.54,12.54,0,0,0,.29-2.75,6.29,6.29,0,0,0-1.71-4.76A7.17,7.17,0,0,0,440.8,67a10.83,10.83,0,0,0-7.39,2.57c-2,1.71-3.28,4.27-4,7.69l-4,20.29H413.83l7.95-40h11l-.89,4.31A18.73,18.73,0,0,1,445,57Q451.73,57,455.67,60.51Z"/><path class="cls-1" d="M275.89,88a3.57,3.57,0,0,1-1.07-2.82,7.11,7.11,0,0,1,.14-1.64l7.59-37.81H271L263.3,83.81a21,21,0,0,0-.38,3.64,10.06,10.06,0,0,0,3.13,7.88q3.12,2.82,8.69,2.82a20.16,20.16,0,0,0,6.24-1l1.19-8.85a8,8,0,0,1-3.27.6A4.32,4.32,0,0,1,275.89,88Z"/><path class="cls-1" d="M190.19,120.75a5.5,5.5,0,0,1-2.37-2.12,6,6,0,0,1-.82-3.18,8.89,8.89,0,0,1,1.09-4.38,8.08,8.08,0,0,1,3.09-3.13,9.26,9.26,0,0,1,4.64-1.15,8.07,8.07,0,0,1,3.17.59A4.77,4.77,0,0,1,201.1,109l-1.48,1.28a4.67,4.67,0,0,0-3.94-1.69,6.68,6.68,0,0,0-3.5.91,6.13,6.13,0,0,0-2.31,2.43,7.14,7.14,0,0,0-.81,3.37,4.08,4.08,0,0,0,1.28,3.17,5.22,5.22,0,0,0,3.67,1.18,5.89,5.89,0,0,0,4.36-1.7l1.19,1.35A6.21,6.21,0,0,1,197.1,121a9,9,0,0,1-3.23.55A8.16,8.16,0,0,1,190.19,120.75Z"/><path class="cls-1" d="M203.39,120.89a4.23,4.23,0,0,1-1.79-1.66,4.66,4.66,0,0,1-.64-2.47,6.55,6.55,0,0,1,.82-3.28,6,6,0,0,1,2.28-2.3,6.59,6.59,0,0,1,3.29-.83,5.9,5.9,0,0,1,2.7.58,4.14,4.14,0,0,1,1.78,1.63,4.86,4.86,0,0,1,.62,2.48,6.62,6.62,0,0,1-.82,3.3,5.9,5.9,0,0,1-2.27,2.3,6.43,6.43,0,0,1-3.28.83A5.83,5.83,0,0,1,203.39,120.89Zm5-1.73a4.05,4.05,0,0,0,1.52-1.63,5,5,0,0,0,.55-2.39,3,3,0,0,0-.84-2.26,3.36,3.36,0,0,0-2.41-.8,4,4,0,0,0-3.7,2.22,5,5,0,0,0-.56,2.38,3,3,0,0,0,.86,2.25,3.29,3.29,0,0,0,2.39.82A4.18,4.18,0,0,0,208.39,119.16Z"/><path class="cls-1" d="M232.43,111.29a3.4,3.4,0,0,1,1,2.66,7.59,7.59,0,0,1-.15,1.29l-1.21,6.11h-2l1.21-6.11a5.37,5.37,0,0,0,.1-.94,2.12,2.12,0,0,0-.6-1.63,2.55,2.55,0,0,0-1.8-.55,3.64,3.64,0,0,0-2.5.85,4.46,4.46,0,0,0-1.33,2.56l-1.17,5.82h-2l1.23-6.11a5.09,5.09,0,0,0,.1-.92,2.16,2.16,0,0,0-.6-1.64,2.64,2.64,0,0,0-1.82-.56,3.65,3.65,0,0,0-2.5.86,4.58,4.58,0,0,0-1.33,2.61L216,121.35h-2l2.16-10.9h1.89l-.27,1.36a5.09,5.09,0,0,1,3.78-1.46,4.47,4.47,0,0,1,2.18.49,2.94,2.94,0,0,1,1.32,1.44,5.56,5.56,0,0,1,4.44-1.93A4.14,4.14,0,0,1,232.43,111.29Z"/><path class="cls-1" d="M245.88,110.92a4,4,0,0,1,1.71,1.62,4.9,4.9,0,0,1,.62,2.5,6.81,6.81,0,0,1-.8,3.31,6,6,0,0,1-5.37,3.12,5.32,5.32,0,0,1-2.41-.5,3.59,3.59,0,0,1-1.54-1.47l-1.15,5.84h-2l3-14.89h1.89l-.27,1.36a5.36,5.36,0,0,1,3.85-1.46A5.24,5.24,0,0,1,245.88,110.92Zm-1.74,8.24a4.19,4.19,0,0,0,1.52-1.63,5,5,0,0,0,.55-2.39,3,3,0,0,0-.84-2.26,3.33,3.33,0,0,0-2.41-.8,4.22,4.22,0,0,0-2.19.58,4.08,4.08,0,0,0-1.52,1.64,5.12,5.12,0,0,0-.54,2.38,3,3,0,0,0,.85,2.25,3.31,3.31,0,0,0,2.4.82A4.14,4.14,0,0,0,244.14,119.16Z"/><path class="cls-1" d="M262.11,110.45,260,121.35h-1.89l.26-1.4a4.66,4.66,0,0,1-1.73,1.14,5.93,5.93,0,0,1-2.17.38,4.07,4.07,0,0,1-2.86-1,3.5,3.5,0,0,1-1.05-2.7,7.2,7.2,0,0,1,.12-1.25l1.22-6.11h2l-1.21,6.13a5.23,5.23,0,0,0-.11.93,2.08,2.08,0,0,0,.63,1.63,2.69,2.69,0,0,0,1.86.57,3.87,3.87,0,0,0,2.6-.89,4.38,4.38,0,0,0,1.39-2.59l1.15-5.78Z"/><path class="cls-1" d="M266.63,117.88a2.91,2.91,0,0,0-.06.57,1.34,1.34,0,0,0,.36,1,1.51,1.51,0,0,0,1.08.35,2.55,2.55,0,0,0,1.56-.52l.41,1.5a4.32,4.32,0,0,1-2.53.68,3,3,0,0,1-2.09-.73,2.6,2.6,0,0,1-.79-2,3.62,3.62,0,0,1,.09-.82l1.17-5.84H264l.3-1.63h1.88l.47-2.38h2l-.47,2.38h3.12l-.32,1.63H267.8Z"/><path class="cls-1" d="M274.38,110.45h2l-2.16,10.9h-2Zm.68-2.44a1.19,1.19,0,0,1-.35-.85,1.3,1.3,0,0,1,.4-1,1.38,1.38,0,0,1,1-.4,1.24,1.24,0,0,1,.89.34,1.06,1.06,0,0,1,.36.81,1.37,1.37,0,0,1-.4,1,1.43,1.43,0,0,1-1,.39A1.21,1.21,0,0,1,275.06,108Z"/><path class="cls-1" d="M288.6,111.3a3.44,3.44,0,0,1,1,2.67,7.3,7.3,0,0,1-.13,1.27l-1.21,6.11h-2l1.21-6.11a5,5,0,0,0,.1-.9,2.11,2.11,0,0,0-.64-1.65,2.74,2.74,0,0,0-1.89-.57,4,4,0,0,0-2.64.87,4.4,4.4,0,0,0-1.39,2.6l-1.15,5.76h-2l2.16-10.9H282l-.27,1.4a5.3,5.3,0,0,1,3.95-1.5A4.16,4.16,0,0,1,288.6,111.3Z"/><path class="cls-1" d="M304.6,110.45l-1.87,9.42a7.12,7.12,0,0,1-2.17,4.26,6.56,6.56,0,0,1-4.35,1.33,9.26,9.26,0,0,1-2.81-.4,6.34,6.34,0,0,1-2.16-1.14l1.09-1.52a4.79,4.79,0,0,0,1.72.95,7.08,7.08,0,0,0,2.31.36,4.43,4.43,0,0,0,2.93-.86,4.54,4.54,0,0,0,1.41-2.67l.16-.78a5.47,5.47,0,0,1-3.95,1.5,5.71,5.71,0,0,1-2.54-.54,3.91,3.91,0,0,1-1.7-1.54,4.44,4.44,0,0,1-.61-2.36,6.28,6.28,0,0,1,.79-3.11,5.84,5.84,0,0,1,2.21-2.2,6.48,6.48,0,0,1,3.21-.8,5.76,5.76,0,0,1,2.48.52,3.34,3.34,0,0,1,1.59,1.58l.39-2Zm-5.09,8.18A3.88,3.88,0,0,0,301,117.1a4.47,4.47,0,0,0,.54-2.21,2.6,2.6,0,0,0-.85-2.06,3.52,3.52,0,0,0-2.4-.75,4.49,4.49,0,0,0-2.21.54,3.9,3.9,0,0,0-1.52,1.52,4.44,4.44,0,0,0-.54,2.19,2.61,2.61,0,0,0,.86,2.09,3.5,3.5,0,0,0,2.38.75A4.47,4.47,0,0,0,299.51,118.63Z"/><path class="cls-1" d="M312.59,121.12a5.18,5.18,0,0,1-1.9-.9l.88-1.56a4.85,4.85,0,0,0,1.66.81,7.51,7.51,0,0,0,2.13.3,4.29,4.29,0,0,0,2.12-.42,1.32,1.32,0,0,0,.73-1.19.9.9,0,0,0-.58-.88,9.59,9.59,0,0,0-1.82-.54,14.83,14.83,0,0,1-1.88-.5,2.94,2.94,0,0,1-1.25-.82,2.21,2.21,0,0,1-.51-1.53,3,3,0,0,1,.61-1.87,3.8,3.8,0,0,1,1.72-1.24,7.2,7.2,0,0,1,2.6-.43,8.27,8.27,0,0,1,2.12.27,5.41,5.41,0,0,1,1.69.72l-.78,1.56a4.86,4.86,0,0,0-1.48-.65,7.19,7.19,0,0,0-1.73-.21,3.92,3.92,0,0,0-2.06.44,1.33,1.33,0,0,0-.72,1.18,1,1,0,0,0,.6.94,9.79,9.79,0,0,0,1.85.54c.75.17,1.37.33,1.85.49a2.91,2.91,0,0,1,1.22.81,2.13,2.13,0,0,1,.51,1.5,3,3,0,0,1-1.37,2.6,6.34,6.34,0,0,1-3.63.93A9.14,9.14,0,0,1,312.59,121.12Z"/><path class="cls-1" d="M324.44,120.89a4.29,4.29,0,0,1-1.79-1.66,4.75,4.75,0,0,1-.63-2.47,6.55,6.55,0,0,1,.82-3.28,6,6,0,0,1,2.28-2.3,6.56,6.56,0,0,1,3.29-.83,5.83,5.83,0,0,1,2.69.58,4.14,4.14,0,0,1,1.78,1.63,4.76,4.76,0,0,1,.63,2.48,6.62,6.62,0,0,1-.82,3.3,6,6,0,0,1-2.27,2.3,6.43,6.43,0,0,1-3.28.83A5.9,5.9,0,0,1,324.44,120.89Zm5-1.73a4.05,4.05,0,0,0,1.52-1.63,5.16,5.16,0,0,0,.55-2.39,3,3,0,0,0-.85-2.26,3.32,3.32,0,0,0-2.4-.8,4,4,0,0,0-3.7,2.22,5,5,0,0,0-.56,2.38,3,3,0,0,0,.85,2.25,3.31,3.31,0,0,0,2.4.82A4.18,4.18,0,0,0,329.45,119.16Z"/><path class="cls-1" d="M338.14,106.09h2l-3,15.26h-2Z"/><path class="cls-1" d="M353.14,110.45,351,121.35h-1.9l.27-1.4a4.62,4.62,0,0,1-1.74,1.14,5.84,5.84,0,0,1-2.16.38,4.07,4.07,0,0,1-2.86-1,3.5,3.5,0,0,1-1.05-2.7,7.2,7.2,0,0,1,.12-1.25l1.22-6.11h2l-1.21,6.13a5.23,5.23,0,0,0-.11.93,2.08,2.08,0,0,0,.63,1.63,2.69,2.69,0,0,0,1.86.57,3.87,3.87,0,0,0,2.6-.89,4.43,4.43,0,0,0,1.39-2.59l1.15-5.78Z"/><path class="cls-1" d="M357.67,117.88a2.91,2.91,0,0,0-.06.57,1.34,1.34,0,0,0,.36,1,1.51,1.51,0,0,0,1.08.35,2.55,2.55,0,0,0,1.56-.52l.41,1.5a4.32,4.32,0,0,1-2.53.68,3,3,0,0,1-2.09-.73,2.6,2.6,0,0,1-.79-2,4.3,4.3,0,0,1,.08-.82l1.18-5.84H355l.3-1.63h1.88l.47-2.38h2l-.47,2.38h3.12l-.32,1.63h-3.13Z"/><path class="cls-1" d="M365.42,110.45h2l-2.16,10.9h-2Zm.68-2.44a1.15,1.15,0,0,1-.35-.85,1.3,1.3,0,0,1,.4-1,1.38,1.38,0,0,1,1-.4,1.24,1.24,0,0,1,.89.34,1.06,1.06,0,0,1,.36.81,1.37,1.37,0,0,1-.4,1,1.43,1.43,0,0,1-1,.39A1.19,1.19,0,0,1,366.1,108Z"/><path class="cls-1" d="M371.4,120.89a4.29,4.29,0,0,1-1.79-1.66,4.75,4.75,0,0,1-.63-2.47,6.55,6.55,0,0,1,.82-3.28,6,6,0,0,1,2.28-2.3,6.56,6.56,0,0,1,3.29-.83,5.83,5.83,0,0,1,2.69.58,4.14,4.14,0,0,1,1.78,1.63,4.76,4.76,0,0,1,.63,2.48,6.73,6.73,0,0,1-.82,3.3,5.93,5.93,0,0,1-2.28,2.3,6.39,6.39,0,0,1-3.27.83A5.9,5.9,0,0,1,371.4,120.89Zm5-1.73a4.05,4.05,0,0,0,1.52-1.63,5.16,5.16,0,0,0,.54-2.39,3,3,0,0,0-.84-2.26,3.32,3.32,0,0,0-2.4-.8,4.11,4.11,0,0,0-2.18.58,4.18,4.18,0,0,0-1.53,1.64,5.12,5.12,0,0,0-.55,2.38,3,3,0,0,0,.85,2.25,3.31,3.31,0,0,0,2.4.82A4.18,4.18,0,0,0,376.41,119.16Z"/><path class="cls-1" d="M392.69,111.3a3.44,3.44,0,0,1,1,2.67,7.24,7.24,0,0,1-.12,1.27l-1.22,6.11h-2l1.21-6.11a5.15,5.15,0,0,0,.11-.9,2.15,2.15,0,0,0-.64-1.65,2.77,2.77,0,0,0-1.89-.57,4,4,0,0,0-2.65.87,4.39,4.39,0,0,0-1.38,2.6L384,121.35h-2l2.16-10.9h1.89l-.26,1.4a5.28,5.28,0,0,1,3.94-1.5A4.16,4.16,0,0,1,392.69,111.3Z"/><path class="cls-1" d="M396.91,121.12a5.31,5.31,0,0,1-1.91-.9l.89-1.56a4.8,4.8,0,0,0,1.65.81,7.51,7.51,0,0,0,2.13.3,4.36,4.36,0,0,0,2.13-.42,1.32,1.32,0,0,0,.73-1.19.9.9,0,0,0-.59-.88,9.36,9.36,0,0,0-1.82-.54,15.81,15.81,0,0,1-1.88-.5,3,3,0,0,1-1.24-.82,2.21,2.21,0,0,1-.51-1.53,3,3,0,0,1,.6-1.87,3.83,3.83,0,0,1,1.73-1.24,7.16,7.16,0,0,1,2.6-.43,8.33,8.33,0,0,1,2.12.27,5.45,5.45,0,0,1,1.68.72l-.78,1.56a4.75,4.75,0,0,0-1.48-.65,7.13,7.13,0,0,0-1.73-.21,3.88,3.88,0,0,0-2.05.44,1.33,1.33,0,0,0-.72,1.18,1,1,0,0,0,.6.94,9.57,9.57,0,0,0,1.85.54c.75.17,1.37.33,1.85.49a3,3,0,0,1,1.22.81,2.13,2.13,0,0,1,.5,1.5,3,3,0,0,1-1.36,2.6,6.39,6.39,0,0,1-3.63.93A9,9,0,0,1,396.91,121.12Z"/><path class="cls-1" d="M415,107h2.06l-2.53,12.6h7.81l-.35,1.79h-9.87Z"/><path class="cls-1" d="M428.39,108.75h-4.91l.35-1.79h11.9l-.37,1.79h-4.91l-2.53,12.6h-2Z"/><path class="cls-1" d="M438,107h5.63a8.59,8.59,0,0,1,3.71.73,5.29,5.29,0,0,1,2.36,2,5.81,5.81,0,0,1,.82,3.12,8.77,8.77,0,0,1-1.12,4.44,7.63,7.63,0,0,1-3.15,3,10,10,0,0,1-4.7,1.06H435.1Zm3.61,12.6a7.45,7.45,0,0,0,3.62-.84,5.89,5.89,0,0,0,2.38-2.34,6.88,6.88,0,0,0,.83-3.4,3.91,3.91,0,0,0-1.27-3.11,5.51,5.51,0,0,0-3.75-1.12h-3.74l-2.16,10.81Z"/></svg>